<svg width="211" height="210" viewBox="0 0 211 210" fill="none" xmlns="http://www.w3.org/2000/svg">
    <path d="M37.5762 161.25C37.5762 155.037 42.6231 150 48.8489 150H71.3944C77.6201 150 82.6671 155.037 82.6671 161.25V183.75C82.6671 189.963 77.6201 195 71.3944 195H48.8489C42.6231 195 37.5762 189.963 37.5762 183.75V161.25Z" fill="#000"/>
    <path d="M172.849 48.75C172.849 54.9632 167.802 60 161.576 60H93.9398C87.7141 60 82.6671 54.9632 82.6671 48.75V26.25C82.6671 20.0368 87.7141 15 93.9398 15H161.576C167.802 15 172.849 20.0368 172.849 26.25V48.75Z" fill="#000"/>
    <path d="M82.6671 138.75C82.6671 144.963 87.7141 150 93.9398 150H116.485C122.711 150 127.758 144.963 127.758 138.75V116.25C127.758 110.037 122.711 105 116.485 105H93.9398C87.7141 105 82.6671 99.9632 82.6671 93.75V71.25C82.6671 65.0368 77.6201 60 71.3944 60H48.8489C42.6231 60 37.5762 65.0368 37.5762 71.25V93.75C37.5762 99.9632 42.6231 105 48.8489 105H71.3944C77.6201 105 82.6671 110.037 82.6671 116.25V138.75Z" fill="#000"/>
</svg>
    